<?xml version="1.0" encoding="utf-8"?>
<!-- Generator: Adobe Illustrator 27.8.1, SVG Export Plug-In . SVG Version: 6.00 Build 0)  -->
<svg version="1.1" id="Layer_1" xmlns="http://www.w3.org/2000/svg" xmlns:xlink="http://www.w3.org/1999/xlink" x="0px" y="0px"
	 viewBox="0 0 400 225" style="enable-background:new 0 0 400 225;" xml:space="preserve">
<style type="text/css">
	.st0{fill:none;}
</style>
<g>
	<g id="Layer_2_00000025420857896847875940000007123222534921666178_">
		<g id="drag_and_drop">
			<rect y="0" class="st0" width="400" height="225"/>
			<path d="M111,151.3c0.7-3,1.2-6.1,2.1-9c1.8-5.9,5.1-11,9.5-15.4c11.4-11.4,22.6-22.8,34.1-34.1C169.7,80,188.6,77.7,204,87
				c3.5,2.1,7,4.5,9,8.2c2.4,4.4,1.3,9.9-2.3,13c-4.1,3.4-9.8,3.6-13.9,0.5c-0.6-0.5-1.2-0.9-1.8-1.5c-6.2-5.5-15.6-5.5-21.8,0
				c-1,0.8-1.8,1.8-2.8,2.7c-10.8,10.8-21.7,21.6-32.5,32.5c-5.9,5.9-6.8,14.7-2.3,21.2c5.9,8.5,17.8,9.5,25.3,2.1
				c6.4-6.4,12.8-12.8,19.3-19.3c0.3-0.3,0.7-0.7,1-1c0.9-0.9,2-1.2,3.2-0.7c5.9,2.3,12,3.4,18.3,3.4c1.2,0,2.1,0.5,2.7,1.7
				s0.2,2.2-0.7,3.1c-1.5,1.6-3.1,3.1-4.6,4.7c-8.4,8.4-16.8,16.9-25.3,25.2c-5.8,5.5-12.8,8.5-20.7,9.6c-0.5,0.1-1,0.2-1.5,0.3
				c-2.1,0-4.3,0-6.4,0c-0.5-0.1-1.2-0.2-1.7-0.3c-15-2.4-25.4-10.4-30.9-24.6c-1.3-3.3-1.7-6.9-2.5-10.4
				C111,155.4,111,153.3,111,151.3z"/>
			<path d="M197.1,139.7c-6.8-0.3-15.8-4.1-22.9-11.9c-3.7-4.1-3.2-10.4,0.5-14.3c3.7-3.8,10.1-4.3,14.4-1.1
				c2.5,1.9,4.9,4.1,8.1,4.9c5.8,1.5,11.1,0.5,15.7-3.6c3.6-3.3,7-6.9,10.5-10.4c8.2-8.2,16.4-16.4,24.6-24.6
				c7-7.1,6.8-17.7-0.5-24.2c-6.4-5.8-16.3-5.4-22.6,0.8c-6.5,6.4-13,12.8-19.3,19.3c-1.6,1.6-3.1,2.1-5.3,1.2c-5.4-2.1-11-3-16.7-3
				c-1.3,0-2.5-0.4-3-1.7c-0.6-1.3-0.1-2.4,0.8-3.3c10-9.9,19.8-20.1,30-29.8c15-14,39.5-12.7,53.4,2.4c13.1,14.3,13.8,34.9,1.9,50
				c-0.8,1.1-1.8,2.1-2.8,3.1c-11.7,11.7-23.3,23.4-35,35C221.1,136.5,211.6,140,197.1,139.7z"/>
		</g>
	</g>
</g>
</svg>
